<svg width="46" height="46" viewBox="0 0 46 46" fill="none" xmlns="http://www.w3.org/2000/svg">
<path d="M38.4422 20.4784H32.3319V16.813C32.3319 15.8409 32.4766 15.2366 32.7916 14.8625C33.0817 14.518 33.6684 14.1987 35.0083 14.1987H38.6837H39.4504V13.432V7.222V6.5333L38.7656 6.45972C36.958 6.26551 35.1411 6.1719 33.3231 6.17933C30.5185 6.17966 28.0774 7.03883 26.3353 8.76151C24.5905 10.4868 23.6317 12.9941 23.6317 16.123V20.4784H18.4H17.6333V21.2451V28.1865V28.9532H18.4H23.6294V45.2333H2.5392C1.55962 45.2333 0.766667 44.4404 0.766667 43.4608V2.5392C0.766667 1.55962 1.55962 0.766667 2.5392 0.766667H43.4608C44.4404 0.766667 45.2333 1.55962 45.2333 2.5392V43.4608C45.2333 44.4404 44.4404 45.2333 43.4608 45.2333H32.3342V28.9532H37.5475H38.2217L38.3079 28.2845L39.2026 21.3431L39.314 20.4784H38.4422Z" stroke="white" stroke-width="1.53333"/>
</svg>
