<svg width="31" height="31" viewBox="0 0 31 31" fill="none" xmlns="http://www.w3.org/2000/svg">
<g clip-path="url(#clip0_309_2950)">
<path d="M17.5908 0.0605469C17.6851 0.100093 17.7467 0.162553 17.8175 0.175823C19.4438 0.480436 20.4432 1.49676 20.8374 3.04287C21.1284 4.18391 20.9912 5.33158 20.2788 6.33851C20.1196 6.56363 19.9276 6.76561 19.7216 7.00188C19.6077 7.02796 19.5228 7.03039 19.4095 7.02945C18.5682 7.01758 17.7552 7.00909 16.9489 6.98226C17.1597 6.78569 17.3858 6.62692 17.5641 6.42585C18.3321 5.56011 18.6165 4.55336 18.4105 3.4082C18.1984 2.22825 17.539 1.38737 16.4565 0.906787C16.0431 0.723304 15.5757 0.661664 15.1415 0.524922C15.3483 0.418955 15.5443 0.326967 15.7454 0.247848C15.9231 0.177962 16.1063 0.122421 16.2871 0.0605469C16.7122 0.0605469 17.1373 0.0605469 17.5908 0.0605469Z" fill="#8B8A91"/>
<path d="M6.72192 0.545038C7.02451 0.42398 7.32628 0.300809 7.63019 0.183157C7.72074 0.148102 7.81728 0.12852 7.92138 0.0811995C8.33659 0.0605514 8.74151 0.0605514 9.18679 0.0816181C10.6077 0.315871 11.5617 1.09285 12.2061 2.3106C12.5632 2.98561 12.5312 3.70142 12.5385 4.4243C12.5434 4.89934 12.4528 5.35121 12.2158 5.74943C11.9525 6.19188 11.6265 6.59698 11.2991 7.0211C10.3755 7.01532 9.48056 7.00677 8.59038 6.97911C8.61334 6.93632 8.62737 6.90723 8.65026 6.88971C9.81863 5.9952 10.2679 4.81782 10.0475 3.37016C9.85618 2.11353 8.61778 0.861497 7.36481 0.665599C7.1495 0.631935 6.93617 0.585548 6.72192 0.545038Z" fill="#8B8A91"/>
<path d="M17.5249 31.0605C17.1594 30.8829 17.1584 30.5237 17.0856 30.2255C16.627 28.3473 16.1893 26.4641 15.7455 24.5823C15.4865 23.4838 15.229 22.385 14.9705 21.2864C14.8246 20.6662 14.6779 20.0462 14.5565 19.4012C14.9507 19.3771 15.3198 19.3779 15.689 19.3787C15.8089 19.945 15.9185 20.5138 16.0507 21.0773C16.4477 22.7694 16.8527 24.4597 17.256 26.1504C17.5521 27.3921 17.867 28.6297 18.1365 29.8771C18.2045 30.1921 18.4435 30.533 18.1654 30.8675C18.1176 30.925 18.0535 30.9691 17.9897 31.0399C17.8389 31.0605 17.6953 31.0605 17.5249 31.0605Z" fill="white"/>
<path d="M11.0268 19.3787C10.8805 20.051 10.7416 20.725 10.5862 21.3952C10.2091 23.0213 9.82759 24.6464 9.44153 26.2704C9.11455 27.6459 8.7857 29.021 8.43969 30.3918C8.38382 30.6131 8.23412 30.8107 8.12053 31.0399C7.96973 31.0605 7.8262 31.0605 7.65578 31.0605C7.3308 30.8802 7.27129 30.6076 7.34561 30.2937C7.7813 28.4534 8.21915 26.6137 8.65829 24.7743C8.97457 23.4494 9.29504 22.1256 9.61143 20.8008C9.72057 20.3438 9.82302 19.8852 9.9542 19.4019C10.3289 19.3771 10.6779 19.3779 11.0268 19.3787Z" fill="white"/>
<path d="M11.2991 7.02108C12.2746 7.01969 13.2214 7.02106 14.2245 7.02215C15.168 7.01478 16.0551 7.00768 16.9422 7.00057C17.7552 7.00907 18.5682 7.01757 19.4088 7.05704C19.4365 11.1803 19.4365 15.2726 19.4366 19.3649C18.206 19.3684 16.9754 19.3719 15.7169 19.377C15.3199 19.3779 14.9507 19.3771 14.5527 19.3775C13.3768 19.3776 12.2297 19.3765 11.0548 19.377C10.6779 19.3779 10.3289 19.3771 9.95114 19.3775C8.06822 19.3774 6.21389 19.3602 4.36013 19.3854C3.85185 19.3923 3.69301 19.0861 3.69332 18.699C3.69369 18.2455 3.69341 17.792 3.69341 17.3386C3.69341 14.1241 3.69581 10.9095 3.69068 7.69499C3.68995 7.24037 3.88965 6.97693 4.36229 7.01524C4.82277 7.05256 5.28869 7.02276 5.80852 7.02214C6.77174 7.01397 7.67866 7.00609 8.58559 6.9982C9.48057 7.00675 10.3755 7.0153 11.2991 7.02108Z" fill="white"/>
<path d="M19.4646 19.3694C19.4365 15.2726 19.4364 11.1803 19.4371 7.06042C19.5227 7.03039 19.6076 7.02796 19.7178 7.02186C20.2964 7.01995 20.8513 7.04848 21.4024 7.0152C21.8643 6.98731 22.0347 7.29797 22.0367 7.66765C22.0409 8.46241 22.0384 9.25721 22.0327 10.1068C22.0197 10.2112 22.0066 10.2607 22.0065 10.3102C22.0029 12.2358 21.9999 14.1615 22 16.0871C22.0001 16.1748 22.0304 16.2625 22.0467 16.3503C22.0437 17.1229 22.0406 17.8955 22.038 18.6682C22.0362 19.1917 21.853 19.3749 21.3293 19.3749C20.717 19.3748 20.1048 19.3742 19.4646 19.3694Z" fill="white"/>
<path d="M24.9566 9.03484C25.5127 8.81463 26.0628 8.57758 26.6267 8.37959C27.0687 8.22439 27.4205 8.53608 27.4208 9.05206C27.4222 11.1206 27.4214 13.1891 27.4214 15.2576C27.4214 15.974 27.4233 16.6904 27.4208 17.4068C27.4187 18.0245 27.0654 18.2571 26.4979 18.0287C25.9993 17.8281 25.4956 17.6401 24.9739 17.4081C24.9547 14.5914 24.9556 11.8131 24.9566 9.03484Z" fill="#8A8990"/>
<path d="M24.9335 9.03183C24.9556 11.8131 24.9547 14.5914 24.9552 17.3969C24.3184 17.1914 23.6792 16.9611 23.0423 16.7249C22.7229 16.6065 22.4076 16.4772 22.0686 16.3516C22.0305 16.2625 22.0001 16.1748 22.0001 16.0871C21.9999 14.1615 22.003 12.2358 22.0065 10.3102C22.0066 10.2607 22.0198 10.2112 22.0366 10.1348C23.0011 9.74818 23.9557 9.38851 24.9335 9.03183Z" fill="#C7C6CC"/>
<path d="M8.59028 6.97911C7.67856 7.0061 6.77163 7.01399 5.83624 7.01812C5.24277 6.36459 4.7692 5.6661 4.63514 4.78974C4.45299 3.59905 4.6784 2.51047 5.43921 1.5516C5.77886 1.12352 6.16725 0.76158 6.69927 0.545197C6.93608 0.585545 7.14941 0.631932 7.36472 0.665596C8.61769 0.861494 9.85609 2.11353 10.0474 3.37015C10.2678 4.81782 9.81853 5.9952 8.65017 6.88971C8.62728 6.90723 8.61325 6.93631 8.59028 6.97911Z" fill="#C7C6CC"/>
<path d="M16.9489 6.98224C16.055 7.00768 15.1679 7.01478 14.2523 7.01812C13.6483 6.43378 13.2379 5.75972 13.0442 4.9587C12.6472 3.31763 13.4169 1.47671 14.8644 0.623266C14.9314 0.583773 15.0132 0.569332 15.1105 0.543854C15.5757 0.66165 16.0431 0.723289 16.4564 0.906773C17.539 1.38735 18.1983 2.22823 18.4105 3.40818C18.6164 4.55334 18.3321 5.56009 17.5641 6.42583C17.3858 6.62691 17.1597 6.78567 16.9489 6.98224Z" fill="#C7C6CC"/>
</g>
<defs>
<clipPath id="clip0_309_2950">
<rect width="31" height="31" fill="white"/>
</clipPath>
</defs>
</svg>
