<svg width="46" height="46" viewBox="0 0 46 46" fill="none" xmlns="http://www.w3.org/2000/svg">
<path d="M17.6633 15.013C19.2427 13.9577 21.0995 13.3943 22.999 13.3941C25.5459 13.3974 27.9875 14.4106 29.7884 16.2116C31.5894 18.0125 32.6026 20.4541 32.6059 23.001C32.6057 24.9005 32.0423 26.7573 30.987 28.3367C29.9315 29.9164 28.4313 31.1476 26.676 31.8747C24.9208 32.6017 22.9893 32.792 21.126 32.4213C19.2626 32.0507 17.551 31.1358 16.2076 29.7924C14.8642 28.449 13.9493 26.7374 13.5787 24.874C13.208 23.0107 13.3983 21.0792 14.1253 19.324C14.8524 17.5687 16.0836 16.0685 17.6633 15.013ZM18.3147 30.0121C19.7015 30.9387 21.332 31.4333 23 31.4333C25.2367 31.4333 27.3817 30.5448 28.9633 28.9633C30.5448 27.3817 31.4333 25.2367 31.4333 23C31.4333 21.332 30.9387 19.7015 30.0121 18.3147C29.0854 16.9278 27.7683 15.8469 26.2273 15.2086C24.6863 14.5703 22.9906 14.4033 21.3547 14.7287C19.7188 15.0541 18.2162 15.8573 17.0367 17.0367C15.8573 18.2162 15.0541 19.7188 14.7287 21.3547C14.4033 22.9906 14.5703 24.6863 15.2086 26.2273C15.8469 27.7683 16.9278 29.0854 18.3147 30.0121ZM12.1769 0.766667H33.8231C36.8482 0.770134 39.7484 1.97339 41.8875 4.11248C44.0267 6.25166 45.23 9.15206 45.2333 12.1773V33.8227C45.23 36.8479 44.0267 39.7483 41.8875 41.8875C39.7483 44.0267 36.8479 45.23 33.8227 45.2333H12.1773C9.15206 45.23 6.25166 44.0267 4.11248 41.8875C1.97339 39.7484 0.770134 36.8482 0.766667 33.8231V12.1769C0.770134 9.15179 1.97339 6.25156 4.11248 4.11248C6.25156 1.97339 9.15179 0.770134 12.1769 0.766667ZM41.0624 41.0624C42.9822 39.1425 44.0608 36.5386 44.0608 33.8235V12.1765C44.0608 9.46138 42.9822 6.8575 41.0624 4.93764C39.1425 3.01778 36.5386 1.93922 33.8235 1.93922H12.1765C9.46138 1.93922 6.8575 3.01778 4.93764 4.93764C3.01778 6.8575 1.93922 9.46138 1.93922 12.1765V33.8235C1.93922 36.5386 3.01778 39.1425 4.93764 41.0624C6.8575 42.9822 9.46138 44.0608 12.1765 44.0608H33.8235C36.5386 44.0608 39.1425 42.9822 41.0624 41.0624ZM36.2137 11.2745C36.2137 11.5689 36.1264 11.8566 35.9629 12.1013C35.7994 12.3461 35.567 12.5368 35.295 12.6495C35.0231 12.7621 34.7238 12.7916 34.4352 12.7341C34.1465 12.6767 33.8813 12.535 33.6731 12.3269C33.465 12.1187 33.3233 11.8535 33.2659 11.5649C33.2084 11.2762 33.2379 10.9769 33.3505 10.705C33.4632 10.433 33.6539 10.2006 33.8987 10.0371C34.1434 9.87356 34.4311 9.78627 34.7255 9.78627C35.1202 9.78627 35.4987 9.94307 35.7778 10.2222C36.0569 10.5013 36.2137 10.8798 36.2137 11.2745Z" stroke="white" stroke-width="1.53333"/>
</svg>
