<svg width="110" height="48" viewBox="0 0 110 48" fill="none" xmlns="http://www.w3.org/2000/svg">
<path d="M2.83967 32.9928C2.83967 33.4556 2.9168 33.8833 3.07106 34.2759C3.22531 34.6546 3.43566 34.9911 3.70209 35.2856C3.96853 35.5661 4.28405 35.7904 4.64865 35.9587C5.02728 36.113 5.44096 36.1901 5.8897 36.1901C6.36648 36.1901 6.79418 36.1059 7.17281 35.9377C7.55143 35.7694 7.87396 35.545 8.1404 35.2646C8.42086 34.9701 8.63121 34.6335 8.77144 34.2549C8.92569 33.8623 9.00282 33.4416 9.00282 32.9928V25.841C9.00282 25.3502 8.90466 24.8875 8.70834 24.4528C8.51201 24.018 8.24557 23.5974 7.90902 23.1907C7.58649 22.784 7.21488 22.3914 6.79418 22.0127C6.37349 21.6341 5.94579 21.2625 5.51107 20.8979C4.99222 20.4632 4.47336 20.0215 3.95451 19.5727C3.44968 19.124 2.99393 18.6472 2.58726 18.1424C2.19461 17.6375 1.87208 17.0977 1.61967 16.5227C1.38127 15.9478 1.26208 15.3097 1.26208 14.6086V12.0423C1.26208 11.3692 1.38127 10.7522 1.61967 10.1913C1.87208 9.61634 2.20864 9.13254 2.62933 8.73989C3.05002 8.33322 3.54083 8.0177 4.10175 7.79334C4.6767 7.56897 5.27969 7.45678 5.91073 7.45678C6.58384 7.45678 7.20085 7.57598 7.76178 7.81437C8.33672 8.05276 8.83454 8.3823 9.25524 8.803C9.67593 9.20967 9.99846 9.69346 10.2228 10.2544C10.4612 10.8013 10.5804 11.3973 10.5804 12.0423V16.3544H9.00282V12.0634C9.00282 11.6006 8.92569 11.1799 8.77144 10.8013C8.61719 10.4086 8.40684 10.0721 8.1404 9.79163C7.87396 9.49714 7.55143 9.27277 7.17281 9.11852C6.79418 8.95024 6.38752 8.8661 5.9528 8.8661C5.47601 8.8661 5.0413 8.95024 4.64865 9.11852C4.27003 9.28679 3.9475 9.51817 3.68106 9.81266C3.41462 10.0931 3.20428 10.4297 3.05002 10.8223C2.90979 11.2009 2.83967 11.6146 2.83967 12.0634V14.6086C2.83967 15.1274 2.94485 15.6182 3.15519 16.081C3.36554 16.5297 3.63899 16.9644 3.97554 17.3851C4.32612 17.7918 4.71877 18.1844 5.15348 18.5631C5.5882 18.9417 6.02993 19.3203 6.47867 19.6989C6.9835 20.1196 7.48132 20.5543 7.97212 21.0031C8.46293 21.4518 8.89765 21.9286 9.27627 22.4334C9.66892 22.9383 9.98444 23.4711 10.2228 24.0321C10.4612 24.593 10.5804 25.196 10.5804 25.841V33.0139C10.5804 33.687 10.4542 34.304 10.2018 34.8649C9.9634 35.4258 9.63386 35.9096 9.21317 36.3163C8.79247 36.723 8.29466 37.0385 7.71971 37.2628C7.15879 37.4872 6.55579 37.5994 5.91073 37.5994C5.23762 37.5994 4.6136 37.4802 4.03865 37.2418C3.47773 37.0034 2.98692 36.6809 2.56622 36.2742C2.15956 35.8676 1.83702 35.3838 1.59863 34.8228C1.37426 34.2619 1.26208 33.6589 1.26208 33.0139V28.4704H2.83967V32.9928ZM15.1239 20.6034H21.266V22.0127H15.1239V35.7694H21.7708V37.1787H13.5463V13.9986C13.5463 13.5358 13.5533 13.059 13.5673 12.5682C13.5954 12.0774 13.6585 11.6076 13.7566 11.1589C13.8548 10.7101 14.0161 10.2894 14.2404 9.8968C14.4648 9.49013 14.7733 9.13955 15.166 8.84507C15.5726 8.53656 16.0845 8.29817 16.7015 8.12989C17.3325 7.96161 18.1038 7.87747 19.0153 7.87747H21.245V9.28679H19.457C18.7138 9.28679 18.0687 9.3499 17.5218 9.47611C16.9749 9.60231 16.5192 9.81967 16.1546 10.1282C15.804 10.4227 15.5446 10.8293 15.3763 11.3482C15.208 11.867 15.1239 12.5191 15.1239 13.3044V20.6034ZM32.0568 13.4096V7.87747H33.6344V37.1787H32.0568V21.2134C32.0568 19.5166 31.8885 18.0232 31.5519 16.7331C31.2294 15.4429 30.7877 14.3281 30.2268 13.3885C29.6658 12.449 29.0068 11.6707 28.2495 11.0537C27.5063 10.4367 26.714 9.95289 25.8726 9.60231V37.1787H24.295V7.87747H25.5571C26.2302 8.08782 26.8752 8.36828 27.4923 8.71886C28.1233 9.05541 28.7123 9.46208 29.2592 9.93887C29.8201 10.4016 30.3249 10.9275 30.7737 11.5165C31.2224 12.0914 31.608 12.7224 31.9306 13.4096H32.0568Z" fill="white"/>
<path d="M68.3064 7.87747H69.884V37.1787H68.3064V7.87747ZM73.481 13.9986C73.481 13.5358 73.488 13.059 73.502 12.5682C73.53 12.0774 73.5931 11.6076 73.6913 11.1589C73.7895 10.7101 73.9507 10.2894 74.1751 9.8968C74.3995 9.49013 74.708 9.13955 75.1006 8.84507C75.5073 8.53656 76.0191 8.29817 76.6362 8.12989C77.2672 7.96161 78.0385 7.87747 78.95 7.87747H81.7055V9.28679H79.3917C78.6344 9.28679 77.9824 9.3499 77.4355 9.47611C76.9026 9.60231 76.4539 9.81967 76.0893 10.1282C75.7387 10.4227 75.4793 10.8293 75.311 11.3482C75.1427 11.867 75.0586 12.5191 75.0586 13.3044V21.2555H81.4741V22.6648H75.0586V37.1787H73.481V13.9986ZM90.1825 8.8661C89.4813 8.8661 88.8573 8.92921 88.3104 9.05541C87.7635 9.18162 87.2937 9.39898 86.9011 9.70749C86.5084 10.016 86.2069 10.4297 85.9966 10.9485C85.8002 11.4674 85.7021 12.1124 85.7021 12.8837V35.7694H92.4121V37.1787H84.1245V13.5779C84.1245 13.1151 84.1315 12.6453 84.1455 12.1685C84.1736 11.6777 84.2437 11.208 84.3559 10.7592C84.4681 10.2965 84.6433 9.86875 84.8817 9.47611C85.1201 9.06944 85.4637 8.71886 85.9124 8.42437C86.3612 8.12989 86.9291 7.89851 87.6162 7.73023C88.3174 7.54793 89.1728 7.45678 90.1825 7.45678V8.8661ZM94.4315 7.87747H96.0091V37.1787H94.4315V7.87747ZM108.483 11.6427C108.483 13.3114 108.384 14.7348 108.188 15.9127C107.992 17.0766 107.718 18.0863 107.368 18.9417C107.031 19.7971 106.632 20.5403 106.169 21.1714C105.72 21.7884 105.236 22.3844 104.717 22.9593C105.138 23.4782 105.531 24.0391 105.895 24.6421C106.274 25.2451 106.596 25.9532 106.863 26.7666C107.129 27.5659 107.34 28.5054 107.494 29.5852C107.648 30.651 107.725 31.913 107.725 33.3714V37.1787H106.148V33.4345C106.148 32.0463 106.057 30.8192 105.874 29.7535C105.706 28.6737 105.475 27.7201 105.18 26.8928C104.9 26.0654 104.563 25.3502 104.17 24.7472C103.792 24.1443 103.392 23.6324 102.972 23.2117C102.551 23.6324 102.151 24.1513 101.773 24.7683C101.394 25.3713 101.057 26.0935 100.763 26.9348C100.468 27.7622 100.237 28.7158 100.069 29.7956C99.9005 30.8613 99.8163 32.0743 99.8163 33.4345V37.1787H98.2387V33.3083C98.2387 31.5555 98.3369 30.09 98.5332 28.9121C98.7295 27.7342 98.996 26.7385 99.3325 25.9252C99.6831 25.0978 100.083 24.3967 100.531 23.8217C100.994 23.2468 101.485 22.6718 102.004 22.0969C101.583 21.5921 101.184 21.0592 100.805 20.4983C100.44 19.9373 100.125 19.2642 99.8584 18.4789C99.5919 17.6796 99.3816 16.7401 99.2273 15.6603C99.0731 14.5665 98.996 13.2483 98.996 11.7058V7.87747H100.574V11.5796C100.574 12.9398 100.658 14.1598 100.826 15.2396C100.994 16.3194 101.226 17.2729 101.52 18.1003C101.815 18.9277 102.151 19.6499 102.53 20.2669C102.908 20.8699 103.308 21.3817 103.729 21.8024C104.149 21.3817 104.549 20.8699 104.928 20.2669C105.32 19.6639 105.657 18.9487 105.937 18.1213C106.232 17.294 106.463 16.3474 106.632 15.2817C106.814 14.2019 106.905 12.9679 106.905 11.5796V7.87747H108.483V11.6427Z" fill="white"/>
<g clip-path="url(#clip0_309_2933)">
<path d="M53.6984 0.252319C53.8131 0.300405 53.888 0.376353 53.9741 0.392488C55.9516 0.762878 57.1668 1.99867 57.6461 3.87864C57.9999 5.26607 57.8331 6.66157 56.9669 7.88593C56.7733 8.15966 56.5398 8.40525 56.2894 8.69255C56.1508 8.72425 56.0476 8.72721 55.9099 8.72607C54.8869 8.71164 53.8983 8.70131 52.9179 8.66868C53.1743 8.42967 53.4491 8.23662 53.666 7.99213C54.5998 6.93944 54.9456 5.71529 54.6952 4.32285C54.4372 2.88811 53.6355 1.86565 52.3191 1.28129C51.8166 1.05819 51.2482 0.98324 50.7202 0.816971C50.9716 0.688121 51.21 0.57627 51.4546 0.480066C51.6706 0.395088 51.8934 0.327555 52.1133 0.252319C52.6301 0.252319 53.147 0.252319 53.6984 0.252319Z" fill="#8B8A91"/>
<path d="M40.4828 0.841402C40.8507 0.694203 41.2177 0.544435 41.5872 0.401378C41.6973 0.358753 41.8147 0.334942 41.9413 0.277403C42.4461 0.252297 42.9385 0.252297 43.4799 0.277912C45.2077 0.562749 46.3677 1.50751 47.1512 2.98822C47.5854 3.80899 47.5465 4.67936 47.5554 5.55834C47.5613 6.13596 47.4511 6.6854 47.163 7.16962C46.8428 7.70761 46.4464 8.20018 46.0484 8.71589C44.9253 8.70886 43.8371 8.69846 42.7547 8.66483C42.7826 8.61279 42.7997 8.57743 42.8275 8.55612C44.2482 7.46846 44.7944 6.03684 44.5265 4.27657C44.2939 2.74859 42.788 1.2262 41.2645 0.987997C41.0027 0.947063 40.7433 0.89066 40.4828 0.841402Z" fill="#8B8A91"/>
<path d="M53.6183 37.9464C53.1738 37.7304 53.1726 37.2936 53.0841 36.931C52.5265 34.6473 51.9943 32.3573 51.4547 30.0692C51.1397 28.7336 50.8266 27.3975 50.5123 26.0617C50.3348 25.3076 50.1565 24.5536 50.0089 23.7694C50.4882 23.7401 50.9371 23.741 51.386 23.742C51.5318 24.4306 51.665 25.1222 51.8258 25.8074C52.3084 27.8649 52.8009 29.9202 53.2913 31.9759C53.6514 33.4857 54.0343 34.9906 54.3619 36.5074C54.4447 36.8904 54.7352 37.3049 54.3971 37.7116C54.339 37.7816 54.261 37.8351 54.1834 37.9213C54 37.9464 53.8255 37.9464 53.6183 37.9464Z" fill="white"/>
<path d="M45.717 23.7419C45.539 24.5594 45.3702 25.379 45.1812 26.1939C44.7226 28.1712 44.2587 30.1472 43.7893 32.1219C43.3917 33.7944 42.9919 35.4665 42.5712 37.1332C42.5032 37.4023 42.3212 37.6426 42.1831 37.9213C41.9997 37.9464 41.8252 37.9464 41.618 37.9464C41.2228 37.7271 41.1505 37.3957 41.2408 37.0139C41.7706 34.7763 42.303 32.5393 42.837 30.3026C43.2215 28.6917 43.6112 27.082 43.9959 25.4712C44.1286 24.9155 44.2532 24.3579 44.4127 23.7701C44.8683 23.7401 45.2926 23.741 45.717 23.7419Z" fill="white"/>
<path d="M46.0482 8.7159C47.2342 8.71421 48.3855 8.71587 49.6053 8.71721C50.7524 8.70824 51.8311 8.6996 52.9098 8.69097C53.8984 8.7013 54.8869 8.71163 55.909 8.75963C55.9426 13.7732 55.9427 18.7492 55.9429 23.7252C54.4465 23.7294 52.9501 23.7337 51.4199 23.74C50.9372 23.741 50.4883 23.7401 50.0043 23.7405C48.5745 23.7406 47.1797 23.7393 45.751 23.7399C45.2928 23.741 44.8685 23.7401 44.4091 23.7405C42.1196 23.7405 39.8648 23.7196 37.6108 23.7502C36.9927 23.7585 36.7996 23.3862 36.8 22.9155C36.8004 22.3641 36.8001 21.8127 36.8001 21.2613C36.8001 17.3527 36.803 13.444 36.7968 9.53534C36.7959 8.98255 37.0387 8.66222 37.6134 8.7088C38.1733 8.75418 38.7398 8.71794 39.3719 8.71719C40.5431 8.70726 41.6459 8.69767 42.7487 8.68808C43.8369 8.69848 44.9251 8.70887 46.0482 8.7159Z" fill="white"/>
<path d="M55.977 23.7307C55.9428 18.7492 55.9427 13.7733 55.9436 8.76374C56.0477 8.72722 56.151 8.72426 56.285 8.71686C56.9885 8.71453 57.6632 8.74922 58.3333 8.70875C58.8949 8.67484 59.1021 9.05259 59.1045 9.50209C59.1097 10.4685 59.1067 11.4349 59.0997 12.468C59.0839 12.5949 59.0679 12.6551 59.0678 12.7152C59.0634 15.0567 59.0598 17.3982 59.06 19.7396C59.06 19.8463 59.097 19.9529 59.1167 20.0596C59.1131 20.9991 59.1093 21.9385 59.1061 22.878C59.104 23.5146 58.8812 23.7374 58.2444 23.7373C57.4999 23.7372 56.7555 23.7366 55.977 23.7307Z" fill="white"/>
<path d="M62.6548 11.1645C63.331 10.8968 63.9999 10.6085 64.6855 10.3678C65.223 10.1791 65.6507 10.5581 65.6512 11.1855C65.6528 13.7006 65.6519 16.2158 65.6519 18.731C65.6519 19.6021 65.6541 20.4732 65.6512 21.3443C65.6486 22.0954 65.2189 22.3782 64.5289 22.1005C63.9226 21.8566 63.3102 21.628 62.6759 21.3459C62.6524 17.9209 62.6536 14.5427 62.6548 11.1645Z" fill="#8A8990"/>
<path d="M62.6267 11.1608C62.6537 14.5427 62.6525 17.9209 62.6531 21.3322C61.8788 21.0824 61.1016 20.8024 60.3271 20.5151C59.9388 20.3711 59.5555 20.214 59.1433 20.0612C59.0969 19.9529 59.06 19.8463 59.0599 19.7396C59.0597 17.3981 59.0634 15.0567 59.0677 12.7152C59.0679 12.655 59.0838 12.5949 59.1043 12.5019C60.277 12.0319 61.4378 11.5945 62.6267 11.1608Z" fill="#C7C6CC"/>
<path d="M42.7545 8.66491C41.6459 8.69773 40.5431 8.70732 39.4057 8.71234C38.6841 7.9177 38.1083 7.06837 37.9453 6.00278C37.7238 4.55497 37.9979 3.23132 38.923 2.06539C39.336 1.54488 39.8082 1.10478 40.4551 0.841675C40.7431 0.890736 41.0025 0.947139 41.2643 0.988073C42.7878 1.22627 44.2936 2.74867 44.5262 4.27665C44.7942 6.03692 44.248 7.46853 42.8273 8.5562C42.7995 8.57751 42.7824 8.61287 42.7545 8.66491Z" fill="#C7C6CC"/>
<path d="M52.9179 8.66867C51.831 8.6996 50.7523 8.70823 49.639 8.7123C48.9046 8.00177 48.4056 7.18216 48.17 6.20817C47.6873 4.21273 48.6232 1.97429 50.3833 0.936557C50.4648 0.888535 50.5642 0.870977 50.6825 0.839996C51.2482 0.983229 51.8165 1.05818 52.3191 1.28128C53.6354 1.86564 54.4371 2.8881 54.6951 4.32284C54.9455 5.71528 54.5997 6.93943 53.666 7.99211C53.4491 8.23661 53.1742 8.42966 52.9179 8.66867Z" fill="#C7C6CC"/>
</g>
<defs>
<clipPath id="clip0_309_2933">
<rect x="32.3093" y="0.178711" width="37.6941" height="37.6941" rx="5.38486" fill="white"/>
</clipPath>
</defs>
</svg>
