<svg width="162" height="69" viewBox="0 0 162 69" fill="none" xmlns="http://www.w3.org/2000/svg">
<path d="M4.20083 48.8077C4.20083 49.4922 4.31493 50.125 4.54312 50.7058C4.77131 51.2659 5.08249 51.7638 5.47664 52.1994C5.87079 52.6143 6.33755 52.9463 6.87691 53.1952C7.43703 53.4234 8.049 53.5375 8.71283 53.5375C9.41816 53.5375 10.0509 53.413 10.611 53.1641C11.1711 52.9151 11.6482 52.5832 12.0424 52.1683C12.4573 51.7327 12.7684 51.2348 12.9759 50.6747C13.2041 50.0938 13.3182 49.4715 13.3182 48.8077V38.2278C13.3182 37.5017 13.173 36.8171 12.8825 36.1741C12.5921 35.531 12.198 34.9086 11.7001 34.307C11.223 33.7054 10.6732 33.1246 10.0509 32.5645C9.42853 32.0043 8.79581 31.4546 8.15272 30.9152C7.38516 30.2721 6.6176 29.6187 5.85005 28.9549C5.10323 28.291 4.42902 27.5857 3.82742 26.8389C3.24657 26.0921 2.76944 25.2934 2.39603 24.4428C2.04337 23.5923 1.86704 22.6484 1.86704 21.6112V17.8149C1.86704 16.8191 2.04337 15.9063 2.39603 15.0766C2.76944 14.226 3.26731 13.5103 3.88966 12.9295C4.512 12.3279 5.23807 11.8611 6.06787 11.5292C6.9184 11.1973 7.81043 11.0313 8.74395 11.0313C9.7397 11.0313 10.6525 11.2076 11.4823 11.5603C12.3328 11.913 13.0693 12.4005 13.6916 13.0228C14.3139 13.6244 14.7911 14.3401 15.123 15.1699C15.4757 15.979 15.652 16.8606 15.652 17.8149V24.1939H13.3182V17.846C13.3182 17.1614 13.2041 16.5391 12.9759 15.979C12.7477 15.3981 12.4365 14.9002 12.0424 14.4853C11.6482 14.0497 11.1711 13.7178 10.611 13.4896C10.0509 13.2406 9.44928 13.1162 8.80619 13.1162C8.10086 13.1162 7.45777 13.2406 6.87691 13.4896C6.3168 13.7385 5.83967 14.0808 5.44552 14.5164C5.05137 14.9313 4.7402 15.4292 4.512 16.0101C4.30455 16.5702 4.20083 17.1822 4.20083 17.846V21.6112C4.20083 22.3787 4.35642 23.1048 4.66759 23.7894C4.97876 24.4532 5.38329 25.0963 5.88116 25.7187C6.39978 26.3203 6.98064 26.9011 7.62373 27.4612C8.26682 28.0213 8.92028 28.5814 9.58412 29.1416C10.3309 29.7639 11.0674 30.407 11.7934 31.0708C12.5195 31.7347 13.1626 32.44 13.7227 33.1868C14.3036 33.9336 14.7703 34.7219 15.123 35.5517C15.4757 36.3815 15.652 37.2735 15.652 38.2278V48.8388C15.652 49.8345 15.4653 50.7473 15.0919 51.5771C14.7392 52.4069 14.2517 53.1226 13.6294 53.7242C13.007 54.3258 12.2706 54.7926 11.42 55.1245C10.5902 55.4564 9.69821 55.6223 8.74395 55.6223C7.7482 55.6223 6.82505 55.446 5.97451 55.0934C5.14472 54.7407 4.41865 54.2636 3.79631 53.662C3.19471 53.0604 2.71757 52.3447 2.36491 51.5149C2.03299 50.6851 1.86704 49.793 1.86704 48.8388V42.1175H4.20083V48.8077ZM22.3733 30.4796H31.4596V32.5645H22.3733V52.9151H32.2064V55H20.0395V20.7088C20.0395 20.0242 20.0499 19.3189 20.0706 18.5928C20.1121 17.8667 20.2055 17.1718 20.3507 16.5079C20.4959 15.8441 20.7345 15.2218 21.0664 14.6409C21.3983 14.0393 21.8547 13.5207 22.4355 13.085C23.0371 12.6287 23.7943 12.276 24.7071 12.0271C25.6406 11.7781 26.7816 11.6537 28.13 11.6537H31.4284V13.7385H28.7835C27.684 13.7385 26.7297 13.8319 25.9207 14.0186C25.1116 14.2053 24.4374 14.5268 23.8981 14.9832C23.3794 15.4188 22.9957 16.0204 22.7467 16.788C22.4978 17.5556 22.3733 18.5202 22.3733 19.6819V30.4796ZM47.4227 19.8375V11.6537H49.7565V55H47.4227V31.382C47.4227 28.8719 47.1738 26.6625 46.6759 24.754C46.1988 22.8455 45.5453 21.1963 44.7155 19.8064C43.8857 18.4165 42.9107 17.2651 41.7905 16.3524C40.691 15.4396 39.5189 14.7239 38.2742 14.2053V55H35.9404V11.6537H37.8075C38.8032 11.9648 39.7575 12.3797 40.6703 12.8983C41.6038 13.3962 42.4751 13.9978 43.2841 14.7031C44.1139 15.3877 44.8607 16.1657 45.5246 17.0369C46.1884 17.8875 46.7589 18.821 47.236 19.8375H47.4227Z" fill="white"/>
<path d="M101.048 11.6537H103.382V55H101.048V11.6537ZM108.703 20.7088C108.703 20.0242 108.713 19.3189 108.734 18.5928C108.776 17.8667 108.869 17.1718 109.014 16.5079C109.159 15.8441 109.398 15.2218 109.73 14.6409C110.062 14.0393 110.518 13.5207 111.099 13.085C111.701 12.6287 112.458 12.276 113.371 12.0271C114.304 11.7781 115.445 11.6537 116.793 11.6537H120.87V13.7385H117.447C116.327 13.7385 115.362 13.8319 114.553 14.0186C113.765 14.2053 113.101 14.5268 112.561 14.9832C112.043 15.4188 111.659 16.0204 111.41 16.788C111.161 17.5556 111.037 18.5202 111.037 19.6819V31.4442H120.528V33.5291H111.037V55H108.703V20.7088ZM133.41 13.1162C132.373 13.1162 131.45 13.2095 130.641 13.3962C129.832 13.5829 129.137 13.9045 128.556 14.3609C127.975 14.8172 127.529 15.4292 127.218 16.1968C126.927 16.9643 126.782 17.9186 126.782 19.0596V52.9151H136.708V55H124.448V20.0864C124.448 19.4019 124.459 18.7069 124.479 18.0016C124.521 17.2755 124.625 16.5806 124.791 15.9167C124.957 15.2321 125.216 14.5994 125.569 14.0186C125.921 13.417 126.429 12.8983 127.093 12.4627C127.757 12.0271 128.597 11.6848 129.614 11.4358C130.651 11.1661 131.916 11.0313 133.41 11.0313V13.1162ZM139.696 11.6537H142.03V55H139.696V11.6537ZM160.482 17.2236C160.482 19.6923 160.337 21.7979 160.046 23.5404C159.756 25.2623 159.351 26.7559 158.833 28.0213C158.335 29.2868 157.744 30.3862 157.059 31.3198C156.395 32.2325 155.68 33.1142 154.912 33.9647C155.534 34.7323 156.115 35.5621 156.655 36.4541C157.215 37.3461 157.692 38.3938 158.086 39.597C158.48 40.7794 158.791 42.1693 159.02 43.7667C159.248 45.3433 159.362 47.2103 159.362 49.3678V55H157.028V49.4611C157.028 47.4074 156.893 45.5922 156.624 44.0156C156.375 42.4183 156.032 41.0076 155.597 39.7837C155.182 38.5597 154.684 37.5017 154.103 36.6097C153.543 35.7177 152.952 34.9605 152.329 34.3381C151.707 34.9605 151.116 35.728 150.556 36.6408C149.996 37.5328 149.498 38.6012 149.062 39.8459C148.626 41.0698 148.284 42.4805 148.035 44.0778C147.786 45.6544 147.662 47.4489 147.662 49.4611V55H145.328V49.2744C145.328 46.6813 145.473 44.5135 145.764 42.7709C146.054 41.0283 146.448 39.5555 146.946 38.3523C147.465 37.1283 148.056 36.0911 148.72 35.2405C149.404 34.39 150.13 33.5395 150.898 32.6889C150.276 31.9421 149.684 31.1538 149.124 30.324C148.585 29.4942 148.118 28.4985 147.724 27.3368C147.33 26.1543 147.019 24.7644 146.79 23.167C146.562 21.5489 146.448 19.5989 146.448 17.317V11.6537H148.782V17.1303C148.782 19.1425 148.906 20.9473 149.155 22.5447C149.404 24.142 149.747 25.5527 150.182 26.7766C150.618 28.0006 151.116 29.0689 151.676 29.9817C152.236 30.8737 152.827 31.6309 153.45 32.2533C154.072 31.6309 154.663 30.8737 155.223 29.9817C155.804 29.0897 156.302 28.0317 156.717 26.8078C157.153 25.5838 157.495 24.1835 157.744 22.6069C158.013 21.0096 158.148 19.184 158.148 17.1303V11.6537H160.482V17.2236Z" fill="white"/>
<g clip-path="url(#clip0_148_1980)">
<path d="M79.4379 0.108887C79.6075 0.180022 79.7183 0.292374 79.8458 0.316243C82.771 0.864174 84.5688 2.69232 85.2779 5.47343C85.8012 7.52591 85.5544 9.59032 84.2731 11.4015C83.9866 11.8065 83.6413 12.1698 83.2708 12.5948C83.0658 12.6417 82.9131 12.6461 82.7094 12.6444C81.196 12.6231 79.7336 12.6078 78.2833 12.5595C78.6625 12.2059 79.0691 11.9203 79.3899 11.5587C80.7713 10.0014 81.2828 8.19045 80.9124 6.13057C80.5308 4.0081 79.3448 2.49554 77.3974 1.63109C76.654 1.30104 75.8132 1.19016 75.0321 0.944195C75.4041 0.753583 75.7567 0.588118 76.1184 0.4458C76.438 0.32009 76.7677 0.220185 77.0929 0.108887C77.8575 0.108887 78.6222 0.108887 79.4379 0.108887Z" fill="#8B8A91"/>
<path d="M59.8876 0.980361C60.4319 0.762604 60.9747 0.541047 61.5213 0.329418C61.6842 0.266361 61.8579 0.231136 62.0451 0.146018C62.792 0.108877 63.5204 0.108877 64.3213 0.146771C66.8772 0.56814 68.5933 1.96576 69.7523 4.15622C70.3948 5.37041 70.3371 6.65799 70.3504 7.95829C70.3591 8.81279 70.1961 9.6256 69.7698 10.3419C69.2962 11.1378 68.7097 11.8665 68.1209 12.6294C66.4596 12.619 64.8497 12.6036 63.2485 12.5538C63.2898 12.4769 63.3151 12.4245 63.3562 12.393C65.4579 10.784 66.2659 8.66616 65.8695 6.06213C65.5254 3.80173 63.2978 1.5496 61.044 1.19722C60.6567 1.13667 60.273 1.05323 59.8876 0.980361Z" fill="#8B8A91"/>
<path d="M79.3195 55.871C78.6619 55.5515 78.6602 54.9053 78.5292 54.369C77.7043 50.9906 76.917 47.603 76.1187 44.2181C75.6528 42.2422 75.1897 40.2657 74.7246 38.2896C74.4621 37.174 74.1983 36.0587 73.98 34.8985C74.689 34.8552 75.353 34.8566 76.0171 34.858C76.2328 35.8767 76.4299 36.8998 76.6677 37.9134C77.3817 40.9572 78.1103 43.9976 78.8357 47.0387C79.3685 49.2723 79.9349 51.4985 80.4196 53.7424C80.542 54.309 80.9717 54.9221 80.4716 55.5238C80.3856 55.6273 80.2703 55.7065 80.1555 55.834C79.8842 55.871 79.626 55.871 79.3195 55.871Z" fill="white"/>
<path d="M67.6308 34.8579C67.3675 36.0672 67.1178 37.2797 66.8382 38.4852C66.1598 41.4102 65.4736 44.3334 64.7792 47.2547C64.191 49.7288 63.5995 52.2024 62.9771 54.6681C62.8766 55.0662 62.6073 55.4217 62.403 55.834C62.1317 55.871 61.8736 55.871 61.567 55.871C60.9824 55.5466 60.8754 55.0564 61.0091 54.4917C61.7928 51.1814 62.5804 47.8721 63.3703 44.5634C63.9392 42.1803 64.5157 39.799 65.0848 37.416C65.2811 36.594 65.4654 35.7691 65.7014 34.8996C66.3753 34.8551 67.003 34.8565 67.6308 34.8579Z" fill="white"/>
<path d="M68.1206 12.6294C69.8752 12.6269 71.5784 12.6293 73.3828 12.6313C75.0798 12.618 76.6755 12.6053 78.2713 12.5925C79.7337 12.6078 81.1961 12.6231 82.7081 12.6941C82.7579 20.1109 82.758 27.472 82.7582 34.8331C80.5446 34.8394 78.331 34.8457 76.0673 34.855C75.3531 34.8566 74.689 34.8552 73.9731 34.8559C71.8579 34.856 69.7945 34.854 67.6811 34.8549C67.0032 34.8565 66.3754 34.8552 65.6959 34.8559C62.3089 34.8557 58.9734 34.8248 55.6389 34.8701C54.7246 34.8825 54.4389 34.3317 54.4395 33.6353C54.4401 32.8196 54.4396 32.004 54.4396 31.1883C54.4396 25.4061 54.4439 19.6238 54.4347 13.8416C54.4334 13.0238 54.7926 12.55 55.6428 12.6189C56.4711 12.686 57.3092 12.6324 58.2442 12.6313C59.9768 12.6166 61.6082 12.6024 63.2396 12.5882C64.8494 12.6036 66.4593 12.619 68.1206 12.6294Z" fill="white"/>
<path d="M82.8088 34.8413C82.7583 27.472 82.7581 20.1109 82.7593 12.7001C82.9134 12.6461 83.0662 12.6417 83.2644 12.6308C84.3051 12.6273 85.3032 12.6787 86.2946 12.6188C87.1254 12.5686 87.4319 13.1274 87.4355 13.7924C87.443 15.222 87.4386 16.6517 87.4284 18.18C87.4049 18.3677 87.3813 18.4567 87.3811 18.5457C87.3747 22.0095 87.3692 25.4733 87.3696 28.9371C87.3696 29.0949 87.4243 29.2527 87.4535 29.4105C87.4482 30.8003 87.4425 32.1901 87.4378 33.5799C87.4346 34.5215 87.1051 34.8512 86.163 34.8511C85.0617 34.8509 83.9604 34.85 82.8088 34.8413Z" fill="white"/>
<path d="M92.6875 16.2517C93.6878 15.8556 94.6774 15.4292 95.6916 15.0731C96.4867 14.7939 97.1195 15.3545 97.1201 16.2827C97.1226 20.0034 97.1212 23.7242 97.1212 27.445C97.1212 28.7336 97.1245 30.0223 97.1201 31.311C97.1164 32.4222 96.4807 32.8405 95.4599 32.4297C94.5631 32.0689 93.6571 31.7307 92.7187 31.3133C92.684 26.2467 92.6858 21.2492 92.6875 16.2517Z" fill="#8A8990"/>
<path d="M92.646 16.2462C92.6858 21.2491 92.6841 26.2466 92.685 31.2931C91.5396 30.9235 90.3899 30.5093 89.2441 30.0844C88.6697 29.8714 88.1025 29.6388 87.4928 29.4128C87.4242 29.2527 87.3695 29.0949 87.3695 28.9371C87.3692 25.4733 87.3746 22.0095 87.3811 18.5457C87.3812 18.4567 87.4049 18.3676 87.4351 18.2302C89.17 17.5348 90.8872 16.8878 92.646 16.2462Z" fill="#C7C6CC"/>
<path d="M63.2482 12.5539C61.6082 12.6025 59.9768 12.6167 58.2943 12.6241C57.2268 11.4486 56.3749 10.1921 56.1338 8.61574C55.8061 6.47395 56.2116 4.51583 57.5801 2.79103C58.1911 2.02102 58.8897 1.36997 59.8467 0.980743C60.2726 1.05332 60.6564 1.13676 61.0437 1.19731C63.2975 1.54969 65.5251 3.80182 65.8692 6.06222C66.2656 8.66625 65.4575 10.7841 63.3559 12.3931C63.3147 12.4246 63.2895 12.4769 63.2482 12.5539Z" fill="#C7C6CC"/>
<path d="M78.2833 12.5595C76.6755 12.6053 75.0797 12.618 73.4328 12.624C72.3463 11.5729 71.6081 10.3605 71.2596 8.9196C70.5455 5.96768 71.93 2.65627 74.5338 1.12112C74.6543 1.05008 74.8014 1.0241 74.9764 0.978271C75.8132 1.19016 76.654 1.30104 77.3975 1.63108C79.3448 2.49554 80.5308 4.0081 80.9125 6.13057C81.2829 8.19045 80.7713 10.0014 79.39 11.5587C79.0691 11.9203 78.6625 12.2059 78.2833 12.5595Z" fill="#C7C6CC"/>
</g>
<defs>
<clipPath id="clip0_148_1980">
<rect x="47.7963" width="55.7621" height="55.7621" rx="7.96602" fill="white"/>
</clipPath>
</defs>
</svg>
