<svg width="88" height="35" viewBox="0 0 88 35" fill="none" xmlns="http://www.w3.org/2000/svg">
<path d="M2.36829 26.6401C2.36829 27.0116 2.4302 27.3549 2.55401 27.67C2.67783 27.974 2.84666 28.2441 3.06052 28.4805C3.27438 28.7056 3.52764 28.8857 3.82029 29.0207C4.1242 29.1446 4.45624 29.2065 4.81643 29.2065C5.19913 29.2065 5.54243 29.1389 5.84634 29.0039C6.15024 28.8688 6.40913 28.6887 6.62299 28.4636C6.8481 28.2272 7.01694 27.9571 7.1295 27.6532C7.25331 27.338 7.31522 27.0003 7.31522 26.6401V20.8997C7.31522 20.5057 7.23643 20.1343 7.07885 19.7854C6.92127 19.4364 6.70741 19.0987 6.43727 18.7723C6.17838 18.4459 5.8801 18.1307 5.54243 17.8268C5.20476 17.5229 4.86145 17.2247 4.51252 16.932C4.09606 16.5831 3.67959 16.2285 3.26313 15.8683C2.85792 15.5081 2.4921 15.1254 2.16569 14.7202C1.85052 14.315 1.59164 13.8817 1.38904 13.4202C1.19769 12.9587 1.10201 12.4466 1.10201 11.8838V9.82396C1.10201 9.28368 1.19769 8.78842 1.38904 8.33819C1.59164 7.8767 1.86178 7.48838 2.19945 7.17322C2.53713 6.8468 2.93108 6.59354 3.38131 6.41345C3.8428 6.23336 4.3268 6.14331 4.83331 6.14331C5.37359 6.14331 5.86885 6.23898 6.31908 6.43033C6.78057 6.62168 7.18015 6.88619 7.51782 7.22387C7.8555 7.55029 8.11438 7.93861 8.29448 8.38884C8.48582 8.82782 8.5815 9.30619 8.5815 9.82396V13.2851H7.31522V9.84084C7.31522 9.4694 7.25331 9.13173 7.1295 8.82782C7.00568 8.51266 6.83685 8.24252 6.62299 8.0174C6.40913 7.78103 6.15024 7.60094 5.84634 7.47712C5.54243 7.34205 5.21601 7.27452 4.86708 7.27452C4.48438 7.27452 4.13545 7.34205 3.82029 7.47712C3.51638 7.61219 3.2575 7.79791 3.04364 8.03429C2.82978 8.2594 2.66094 8.52954 2.53713 8.8447C2.42457 9.14861 2.36829 9.48066 2.36829 9.84084V11.8838C2.36829 12.3002 2.45271 12.6942 2.62155 13.0656C2.79038 13.4258 3.00987 13.7747 3.28001 14.1124C3.56141 14.4388 3.87657 14.754 4.2255 15.0579C4.57443 15.3618 4.92899 15.6657 5.28917 15.9696C5.69438 16.3073 6.09396 16.6562 6.48792 17.0164C6.88187 17.3766 7.2308 17.7593 7.53471 18.1645C7.84987 18.5697 8.10313 18.9974 8.29448 19.4477C8.48582 19.8979 8.5815 20.3819 8.5815 20.8997V26.657C8.5815 27.1973 8.4802 27.6926 8.27759 28.1428C8.08624 28.593 7.82173 28.9813 7.48406 29.3078C7.14638 29.6342 6.7468 29.8874 6.28531 30.0675C5.83508 30.2476 5.35108 30.3377 4.83331 30.3377C4.29303 30.3377 3.79215 30.242 3.33066 30.0507C2.88043 29.8593 2.48648 29.6004 2.1488 29.274C1.82238 28.9476 1.5635 28.5593 1.37215 28.109C1.19206 27.6588 1.10201 27.1748 1.10201 26.657V23.0101H2.36829V26.6401ZM12.2284 16.6956H17.1584V17.8268H12.2284V28.8688H17.5636V30H10.9621V11.3941C10.9621 11.0227 10.9677 10.64 10.979 10.2461C11.0015 9.8521 11.0521 9.47503 11.1309 9.11484C11.2097 8.75466 11.3392 8.41698 11.5193 8.10182C11.6994 7.7754 11.947 7.49401 12.2621 7.25763C12.5886 7.01001 12.9994 6.81866 13.4947 6.68359C14.0012 6.54852 14.6202 6.48098 15.3519 6.48098H17.1415V7.61219H15.7064C15.1099 7.61219 14.5921 7.66284 14.1531 7.76415C13.7141 7.86545 13.3483 8.03991 13.0557 8.28754C12.7743 8.52391 12.5661 8.85033 12.431 9.2668C12.2959 9.68326 12.2284 10.2067 12.2284 10.837V16.6956ZM25.8198 10.9214V6.48098H27.0861V30H25.8198V17.1853C25.8198 15.8233 25.6847 14.6246 25.4146 13.589C25.1557 12.5535 24.8011 11.6587 24.3509 10.9045C23.9007 10.1504 23.3716 9.52568 22.7638 9.03042C22.1673 8.53517 21.5313 8.14684 20.856 7.86545V30H19.5897V6.48098H20.6027C21.143 6.64982 21.6608 6.87494 22.156 7.15633C22.6625 7.42647 23.1353 7.75289 23.5742 8.13559C24.0245 8.50703 24.4297 8.92912 24.7899 9.40187C25.1501 9.86335 25.4596 10.3699 25.7185 10.9214H25.8198Z" fill="white"/>
<path d="M54.916 6.48098H56.1823V30H54.916V6.48098ZM59.0694 11.3941C59.0694 11.0227 59.075 10.64 59.0863 10.2461C59.1088 9.8521 59.1595 9.47503 59.2383 9.11484C59.317 8.75466 59.4465 8.41698 59.6266 8.10182C59.8067 7.7754 60.0543 7.49401 60.3695 7.25763C60.6959 7.01001 61.1067 6.81866 61.602 6.68359C62.1085 6.54852 62.7276 6.48098 63.4592 6.48098H65.6709V7.61219H63.8137C63.2059 7.61219 62.6825 7.66284 62.2436 7.76415C61.8158 7.86545 61.4556 8.03991 61.163 8.28754C60.8816 8.52391 60.6734 8.85033 60.5383 9.2668C60.4032 9.68326 60.3357 10.2067 60.3357 10.837V17.219H65.4852V18.3502H60.3357V30H59.0694V11.3941ZM72.4751 7.27452C71.9123 7.27452 71.4114 7.32517 70.9724 7.42647C70.5335 7.52777 70.1564 7.70224 69.8412 7.94987C69.5261 8.19749 69.2841 8.52954 69.1152 8.94601C68.9576 9.36247 68.8789 9.88024 68.8789 10.4993V28.8688H74.2648V30H67.6126V11.0565C67.6126 10.685 67.6182 10.308 67.6295 9.92526C67.652 9.53131 67.7082 9.15424 67.7983 8.79405C67.8883 8.42261 68.029 8.07931 68.2204 7.76415C68.4117 7.43773 68.6875 7.15633 69.0477 6.91996C69.4079 6.68359 69.8637 6.49787 70.4153 6.3628C70.9781 6.21647 71.6647 6.14331 72.4751 6.14331V7.27452ZM75.8856 6.48098H77.1519V30H75.8856V6.48098ZM87.1639 9.50317C87.1639 10.8426 87.0851 11.9851 86.9275 12.9306C86.77 13.8648 86.5505 14.6752 86.2691 15.3618C85.9989 16.0484 85.6781 16.645 85.3067 17.1515C84.9465 17.6467 84.5582 18.1251 84.1417 18.5866C84.4794 19.0031 84.7946 19.4533 85.0872 19.9373C85.3911 20.4213 85.65 20.9897 85.8639 21.6426C86.0777 22.2841 86.2466 23.0383 86.3704 23.905C86.4942 24.7604 86.5561 25.7734 86.5561 26.944V30H85.2898V26.9947C85.2898 25.8804 85.2167 24.8955 85.0703 24.04C84.9353 23.1734 84.7495 22.408 84.5132 21.7439C84.2881 21.0798 84.0179 20.5057 83.7028 20.0217C83.3988 19.5377 83.0781 19.1269 82.7404 18.7892C82.4027 19.1269 82.0819 19.5434 81.778 20.0386C81.4741 20.5226 81.204 21.1023 80.9676 21.7776C80.7312 22.4417 80.5455 23.2071 80.4104 24.0738C80.2754 24.9293 80.2078 25.9029 80.2078 26.9947V30H78.9415V26.8934C78.9415 25.4864 79.0203 24.3102 79.1779 23.3647C79.3355 22.4192 79.5494 21.62 79.8195 20.9672C80.1009 20.3031 80.4217 19.7403 80.7819 19.2788C81.1533 18.8174 81.5473 18.3559 81.9637 17.8944C81.6261 17.4892 81.3053 17.0614 81.0014 16.6112C80.7087 16.161 80.4555 15.6207 80.2416 14.9904C80.0277 14.3488 79.8589 13.5947 79.7351 12.728C79.6113 11.85 79.5494 10.792 79.5494 9.55382V6.48098H80.8156V9.45252C80.8156 10.5443 80.8832 11.5236 81.0182 12.3903C81.1533 13.257 81.339 14.0224 81.5754 14.6865C81.8118 15.3506 82.0819 15.9302 82.3858 16.4255C82.6897 16.9095 83.0105 17.3203 83.3482 17.658C83.6859 17.3203 84.0067 16.9095 84.3106 16.4255C84.6257 15.9415 84.8959 15.3674 85.121 14.7034C85.3574 14.0393 85.5431 13.2795 85.6781 12.4241C85.8245 11.5574 85.8976 10.5668 85.8976 9.45252V6.48098H87.1639V9.50317Z" fill="white"/>
<g clip-path="url(#clip0_309_2962)">
<path d="M43.1908 0.0540771C43.2828 0.0893889 43.343 0.145161 43.4121 0.15701C44.9993 0.429007 45.9747 1.33651 46.3595 2.71707C46.6434 3.73593 46.5095 4.76072 45.8143 5.65982C45.6588 5.86084 45.4715 6.04119 45.2705 6.25217C45.1593 6.27545 45.0764 6.27762 44.9659 6.27678C44.1447 6.26619 43.3512 6.2586 42.5643 6.23464C42.7701 6.05912 42.9907 5.91736 43.1648 5.73781C43.9143 4.96477 44.1918 4.06582 43.9909 3.04328C43.7838 1.98967 43.1403 1.23883 42.0837 0.809706C41.6803 0.645869 41.2241 0.59083 40.8003 0.468729C41.0021 0.374109 41.1934 0.291971 41.3897 0.221323C41.5631 0.15892 41.742 0.109327 41.9184 0.0540771C42.3333 0.0540772 42.7482 0.0540772 43.1908 0.0540771Z" fill="#8B8A91"/>
<path d="M32.583 0.48667C32.8783 0.378574 33.1729 0.268592 33.4695 0.163538C33.5578 0.132236 33.6521 0.114751 33.7537 0.0724973C34.1589 0.0540602 34.5541 0.0540602 34.9887 0.0728711C36.3755 0.282041 37.3066 0.975829 37.9355 2.06319C38.284 2.66592 38.2528 3.30508 38.26 3.95056C38.2647 4.37474 38.1762 4.77822 37.9449 5.1338C37.688 5.52887 37.3698 5.8906 37.0503 6.26931C36.1489 6.26415 35.2754 6.25651 34.4066 6.23182C34.429 6.1936 34.4427 6.16763 34.465 6.15199C35.6054 5.35326 36.0438 4.30195 35.8287 3.00929C35.642 1.88722 34.4333 0.769245 33.2105 0.594322C33.0003 0.564263 32.7921 0.522843 32.583 0.48667Z" fill="#8B8A91"/>
<path d="M43.1264 27.7347C42.7696 27.5761 42.7686 27.2553 42.6976 26.9891C42.25 25.312 41.8229 23.6304 41.3897 21.9501C41.1369 20.9693 40.8856 19.9881 40.6333 19.0072C40.4908 18.4534 40.3477 17.8998 40.2292 17.3238C40.6139 17.3023 40.9742 17.303 41.3345 17.3037C41.4516 17.8094 41.5586 18.3173 41.6876 18.8204C42.075 20.3314 42.4703 21.8407 42.8639 23.3503C43.1529 24.4591 43.4603 25.5642 43.7233 26.678C43.7897 26.9593 44.0229 27.2637 43.7515 27.5623C43.7048 27.6137 43.6423 27.653 43.58 27.7163C43.4328 27.7347 43.2927 27.7347 43.1264 27.7347Z" fill="white"/>
<path d="M36.7843 17.3037C36.6415 17.904 36.5059 18.5059 36.3543 19.1043C35.9862 20.5563 35.6139 22.0074 35.2371 23.4575C34.9179 24.6857 34.597 25.9136 34.2593 27.1376C34.2048 27.3352 34.0587 27.5117 33.9478 27.7164C33.8006 27.7347 33.6605 27.7347 33.4942 27.7347C33.177 27.5737 33.1189 27.3303 33.1915 27.05C33.6167 25.4068 34.044 23.7641 34.4726 22.1216C34.7813 20.9386 35.0941 19.7565 35.4029 18.5736C35.5094 18.1655 35.6094 17.756 35.7374 17.3244C36.1031 17.3023 36.4437 17.303 36.7843 17.3037Z" fill="white"/>
<path d="M37.0502 6.2693C38.0022 6.26806 38.9263 6.26928 39.9053 6.27026C40.8261 6.26367 41.6919 6.25733 42.5577 6.25099C43.3512 6.25858 44.1447 6.26617 44.9651 6.30141C44.9921 9.98317 44.9922 13.6373 44.9923 17.2914C43.7912 17.2945 42.5901 17.2976 41.3619 17.3022C40.9744 17.303 40.6141 17.3023 40.2256 17.3027C39.0779 17.3027 37.9584 17.3017 36.8116 17.3022C36.4439 17.303 36.1032 17.3023 35.7345 17.3027C33.8968 17.3026 32.087 17.2872 30.2778 17.3097C29.7817 17.3159 29.6267 17.0425 29.627 16.6968C29.6273 16.2919 29.6271 15.887 29.6271 15.4821C29.6271 12.6117 29.6294 9.74138 29.6244 6.87106C29.6237 6.46511 29.8186 6.22988 30.2799 6.26409C30.7293 6.29741 31.184 6.2708 31.6914 6.27025C32.6315 6.26295 33.5166 6.25591 34.4018 6.24887C35.2753 6.25651 36.1487 6.26414 37.0502 6.2693Z" fill="white"/>
<path d="M45.0197 17.2954C44.9923 13.6373 44.9922 9.9832 44.9928 6.30445C45.0765 6.27763 45.1593 6.27546 45.2669 6.27002C45.8315 6.26831 46.3731 6.29378 46.911 6.26407C47.3618 6.23917 47.5281 6.51656 47.53 6.84665C47.5341 7.55631 47.5318 8.26601 47.5262 9.02468C47.5135 9.11785 47.5006 9.16204 47.5005 9.20624C47.4971 10.9257 47.4941 12.6451 47.4943 14.3646C47.4943 14.4429 47.5239 14.5212 47.5398 14.5996C47.5369 15.2895 47.5338 15.9794 47.5313 16.6693C47.5296 17.1367 47.3508 17.3004 46.8396 17.3003C46.2421 17.3002 45.6445 17.2998 45.0197 17.2954Z" fill="white"/>
<path d="M50.3797 8.06742C50.9224 7.87079 51.4593 7.65913 52.0097 7.48233C52.4411 7.34375 52.7844 7.62207 52.7847 8.0828C52.7861 9.92981 52.7853 11.7768 52.7853 13.6238C52.7853 14.2635 52.7871 14.9032 52.7847 15.5429C52.7827 16.0946 52.4378 16.3022 51.8839 16.0983C51.3973 15.9192 50.9058 15.7513 50.3966 15.5441C50.3778 13.029 50.3787 10.5482 50.3797 8.06742Z" fill="#8A8990"/>
<path d="M50.3572 8.0647C50.3788 10.5482 50.3779 13.0289 50.3784 15.5341C49.7569 15.3506 49.1331 15.145 48.5114 14.934C48.1997 14.8283 47.892 14.7129 47.5611 14.6007C47.5239 14.5212 47.4943 14.4429 47.4943 14.3645C47.4941 12.6451 47.497 10.9256 47.5005 9.20617C47.5006 9.16197 47.5134 9.11778 47.5299 9.04954C48.4712 8.70434 49.4029 8.38319 50.3572 8.0647Z" fill="#C7C6CC"/>
<path d="M34.4064 6.23185C33.5165 6.25595 32.6314 6.26299 31.7184 6.26668C31.1392 5.68313 30.677 5.05943 30.5462 4.27691C30.3684 3.21371 30.5884 2.24168 31.3309 1.38549C31.6624 1.00325 32.0415 0.680061 32.5608 0.486847C32.7919 0.522875 33.0001 0.564295 33.2102 0.594354C34.4331 0.769277 35.6418 1.88725 35.8285 3.00932C36.0436 4.30198 35.6051 5.35329 34.4648 6.15202C34.4425 6.16766 34.4288 6.19363 34.4064 6.23185Z" fill="#C7C6CC"/>
<path d="M42.5642 6.23462C41.6918 6.25733 40.826 6.26368 39.9324 6.26666C39.3428 5.74488 38.9423 5.143 38.7532 4.42775C38.3658 2.9624 39.117 1.31859 40.5298 0.556536C40.5952 0.521271 40.675 0.508377 40.7699 0.485626C41.224 0.590809 41.6801 0.645849 42.0836 0.809685C43.1401 1.23881 43.7836 1.98965 43.9907 3.04326C44.1917 4.0658 43.9142 4.96475 43.1646 5.73779C42.9906 5.91734 42.7699 6.0591 42.5642 6.23462Z" fill="#C7C6CC"/>
</g>
<defs>
<clipPath id="clip0_309_2962">
<rect x="26.0225" width="30.2556" height="27.6807" rx="4.32223" fill="white"/>
</clipPath>
</defs>
</svg>
