<svg width="46" height="33" viewBox="0 0 46 33" fill="none" xmlns="http://www.w3.org/2000/svg">
<path d="M45.2232 11.3641L45.2227 11.3773V11.3906C45.2227 12.6708 45.2221 19.6883 45.1411 20.8224L45.1389 20.854L45.1392 20.8856C45.1653 23.2136 44.811 25.5303 44.0903 27.7441L44.0895 27.7466C43.8738 28.4169 43.5024 29.0265 43.0058 29.5256C42.249 30.2609 41.2898 30.7531 40.2516 30.9392C32.7122 31.5195 26.3306 31.6233 19.0455 31.5193L19.0317 31.5191L19.0179 31.5194C14.5249 31.6167 10.0308 31.3891 5.57058 30.8384C4.5603 30.646 3.62956 30.1589 2.89566 29.4385C2.26652 28.7267 1.82197 27.871 1.60132 26.9467L1.59953 26.9392L1.5976 26.9318C1.25568 25.6169 1.05359 24.2697 0.994697 22.9124L0.994295 22.9032L0.993669 22.8939C0.691133 18.4221 0.690999 13.935 0.993267 9.46322C0.996933 9.41922 1.00059 9.37517 1.00426 9.3311C1.1062 8.10452 1.21029 6.85219 1.49553 5.69459C1.79 4.49953 2.25996 3.48605 3.04699 2.76024L3.04703 2.76029L3.05445 2.75326C3.78346 2.06274 4.69565 1.59684 5.68191 1.41084C11.4369 0.899734 17.2148 0.692529 22.9917 0.790096L23.0045 0.790313L23.0174 0.790098C28.8155 0.693283 34.6146 0.907439 40.3897 1.43164C41.5778 1.65413 42.6546 2.27342 43.4442 3.1872C44.7093 5.72151 45.321 8.53232 45.2232 11.3641ZM17.5156 22.1307V23.4173L18.6471 22.805C20.7392 21.6731 22.8915 20.5797 24.9576 19.5302L25.1358 19.4397C27.2513 18.365 29.2753 17.3347 31.0239 16.3656L32.2664 15.6769L31.0088 15.0163L18.6388 8.51785L17.5156 7.92779V9.19657V22.1307Z" stroke="white" stroke-width="1.53333"/>
</svg>
