<svg width="30" height="27" viewBox="0 0 30 27" fill="none" xmlns="http://www.w3.org/2000/svg">
<mask id="path-1-inside-1_362_2955" fill="white">
<path d="M1.73999 26.9754C1.64864 26.9751 1.56063 26.9411 1.4928 26.8799C1.42498 26.8187 1.38212 26.7347 1.37243 26.6438L0.00112402 12.7408L0 12.706C0 12.5014 0.165231 12.3362 0.369804 12.3362H9.62389V26.9766L1.73999 26.9754ZM5.51671 23.3055C5.51671 23.5947 5.60247 23.8786 5.76316 24.1191C5.92384 24.3595 6.15223 24.547 6.41944 24.6577C6.68665 24.7683 6.98068 24.7973 7.26435 24.7409C7.54802 24.6845 7.80859 24.5452 8.0131 24.3407C8.21761 24.1362 8.35689 23.8756 8.41332 23.5919C8.46974 23.3082 8.44078 23.0142 8.3301 22.747C8.21942 22.4798 8.03198 22.2514 7.7915 22.0907C7.55102 21.93 7.26829 21.8443 6.97906 21.8443H6.97681C6.16864 21.8443 5.51446 22.4985 5.51333 23.3066L5.51671 23.3055ZM6.05624 14.3133C6.05624 14.5168 6.22147 14.682 6.42604 14.682H7.28479C7.38257 14.682 7.47635 14.6431 7.54549 14.574C7.61463 14.5049 7.65347 14.4111 7.65347 14.3133C7.65347 14.2155 7.61463 14.1218 7.54549 14.0526C7.47635 13.9835 7.38257 13.9446 7.28479 13.9446H6.4193C6.32131 13.9449 6.22742 13.984 6.15813 14.0533C6.08885 14.1226 6.04979 14.2164 6.04949 14.3144V14.3178L6.05624 14.3133ZM1.99851 14.3133C1.99851 14.5168 2.16374 14.682 2.36719 14.682H5.18287C5.28065 14.682 5.37443 14.6431 5.44357 14.574C5.51271 14.5049 5.55155 14.4111 5.55155 14.3133C5.55155 14.2155 5.51271 14.1218 5.44357 14.0526C5.37443 13.9835 5.28065 13.9446 5.18287 13.9446H2.36045C2.26285 13.9452 2.16942 13.9843 2.1004 14.0533C2.03139 14.1223 1.99236 14.2157 1.99177 14.3133V14.3167L1.99851 14.3133ZM13.0139 24.8656C12.8159 24.7985 12.6288 24.7027 12.4587 24.5813L12.4654 24.5858L12.353 24.515C12.0912 24.3507 11.8326 24.1813 11.5774 24.0069L11.4639 23.9271C11.3155 23.8203 11.2459 23.7731 11.1694 23.7776L10.3601 23.7888V13.4984L10.3455 12.6329C10.8524 12.3103 11.32 12.0034 11.4605 11.8865C11.6516 11.5021 11.8405 11.1807 12.0495 10.8727L12.0304 10.903C12.1278 10.7532 12.2208 10.6048 12.3092 10.4579L14.247 7.20499C14.3384 7.05212 14.4336 6.89925 14.5325 6.74639C14.6955 6.5036 14.8686 6.2136 15.0271 5.91461L15.054 5.85953C15.1414 5.67756 15.1723 5.47361 15.1428 5.27392L15.144 5.27954L15.1372 1.77258C15.208 1.26228 15.4958 0.830653 15.9016 0.567632L15.9083 0.563136C16.2701 0.237308 16.7291 0.0397824 17.2144 0.00112402H17.2223L17.2931 0C17.6764 0 18.0383 0.0910459 18.3598 0.251781L18.3463 0.245037C18.561 0.348447 18.7442 0.458602 18.9162 0.582244L18.9049 0.574376L19.0241 0.653058C19.295 0.795809 19.4973 1.03635 19.5872 1.32747L19.5895 1.33534C19.7997 2.11766 19.9919 2.82917 20.1706 3.54292L20.2448 3.83404C20.3583 4.21621 20.4561 4.67819 20.519 5.1514L20.5247 5.19861C20.3325 6.96782 19.9627 8.58192 19.4276 10.1196L19.4748 9.96447L28.1219 9.9521H28.1534C28.4154 9.95213 28.6743 10.0079 28.9131 10.1157C29.1518 10.2235 29.3649 10.3808 29.5382 10.5773C29.7115 10.7737 29.841 11.0048 29.9181 11.2551C29.9953 11.5055 30.0183 11.7694 29.9856 12.0293L29.9867 12.0203C30.0111 12.413 29.931 12.8052 29.7545 13.1569C29.5779 13.5085 29.3113 13.8071 28.9818 14.0222L28.9728 14.0278C29.2883 14.489 29.4359 15.0445 29.391 15.6014V15.5936C29.43 16.0349 29.327 16.4771 29.0972 16.8558C28.8673 17.2345 28.5224 17.5299 28.1129 17.6989L28.0995 17.7034C28.3494 18.1522 28.466 18.663 28.4355 19.1758V19.1691C28.4606 19.5534 28.3813 19.9374 28.206 20.2803C28.0306 20.6232 27.7659 20.9123 27.4397 21.117L27.4307 21.1226C27.6598 21.6369 27.7467 22.2033 27.6824 22.7626L27.6836 22.748V22.9593C27.6675 23.2361 27.5957 23.5069 27.4725 23.7553C27.3493 24.0038 27.1772 24.2248 26.9666 24.4052C26.756 24.5856 26.5111 24.7217 26.2467 24.8052C25.9823 24.8888 25.7037 24.9181 25.4277 24.8915L25.4355 24.8926H20.4572L20.4404 24.8937L20.4224 24.8926H20.4235H13.7805C13.7232 24.8926 13.6636 24.8926 13.6007 24.9016C13.5242 24.9061 13.4433 24.9129 13.3601 24.9129H13.3433C13.2297 24.9134 13.1166 24.8982 13.0072 24.8679L13.0162 24.8701L13.0139 24.8656ZM6.25294 23.3066C6.25301 23.2121 6.27171 23.1185 6.30796 23.0312C6.34421 22.9438 6.3973 22.8645 6.4642 22.7977C6.53111 22.7309 6.61051 22.6779 6.69789 22.6418C6.78526 22.6057 6.8789 22.5872 6.97344 22.5872C7.06798 22.5873 7.16159 22.606 7.2489 22.6423C7.33622 22.6785 7.41555 22.7316 7.48235 22.7985C7.54915 22.8654 7.60212 22.9448 7.63823 23.0322C7.67434 23.1196 7.69289 23.2132 7.69281 23.3077C7.69267 23.4987 7.61667 23.6817 7.48155 23.8167C7.34643 23.9516 7.16326 24.0273 6.97232 24.0271C6.78138 24.027 6.59832 23.951 6.46341 23.8159C6.3285 23.6807 6.25279 23.4976 6.25294 23.3066Z"/>
</mask>
<path d="M1.73999 26.9754C1.64864 26.9751 1.56063 26.9411 1.4928 26.8799C1.42498 26.8187 1.38212 26.7347 1.37243 26.6438L0.00112402 12.7408L0 12.706C0 12.5014 0.165231 12.3362 0.369804 12.3362H9.62389V26.9766L1.73999 26.9754ZM5.51671 23.3055C5.51671 23.5947 5.60247 23.8786 5.76316 24.1191C5.92384 24.3595 6.15223 24.547 6.41944 24.6577C6.68665 24.7683 6.98068 24.7973 7.26435 24.7409C7.54802 24.6845 7.80859 24.5452 8.0131 24.3407C8.21761 24.1362 8.35689 23.8756 8.41332 23.5919C8.46974 23.3082 8.44078 23.0142 8.3301 22.747C8.21942 22.4798 8.03198 22.2514 7.7915 22.0907C7.55102 21.93 7.26829 21.8443 6.97906 21.8443H6.97681C6.16864 21.8443 5.51446 22.4985 5.51333 23.3066L5.51671 23.3055ZM6.05624 14.3133C6.05624 14.5168 6.22147 14.682 6.42604 14.682H7.28479C7.38257 14.682 7.47635 14.6431 7.54549 14.574C7.61463 14.5049 7.65347 14.4111 7.65347 14.3133C7.65347 14.2155 7.61463 14.1218 7.54549 14.0526C7.47635 13.9835 7.38257 13.9446 7.28479 13.9446H6.4193C6.32131 13.9449 6.22742 13.984 6.15813 14.0533C6.08885 14.1226 6.04979 14.2164 6.04949 14.3144V14.3178L6.05624 14.3133ZM1.99851 14.3133C1.99851 14.5168 2.16374 14.682 2.36719 14.682H5.18287C5.28065 14.682 5.37443 14.6431 5.44357 14.574C5.51271 14.5049 5.55155 14.4111 5.55155 14.3133C5.55155 14.2155 5.51271 14.1218 5.44357 14.0526C5.37443 13.9835 5.28065 13.9446 5.18287 13.9446H2.36045C2.26285 13.9452 2.16942 13.9843 2.1004 14.0533C2.03139 14.1223 1.99236 14.2157 1.99177 14.3133V14.3167L1.99851 14.3133ZM13.0139 24.8656C12.8159 24.7985 12.6288 24.7027 12.4587 24.5813L12.4654 24.5858L12.353 24.515C12.0912 24.3507 11.8326 24.1813 11.5774 24.0069L11.4639 23.9271C11.3155 23.8203 11.2459 23.7731 11.1694 23.7776L10.3601 23.7888V13.4984L10.3455 12.6329C10.8524 12.3103 11.32 12.0034 11.4605 11.8865C11.6516 11.5021 11.8405 11.1807 12.0495 10.8727L12.0304 10.903C12.1278 10.7532 12.2208 10.6048 12.3092 10.4579L14.247 7.20499C14.3384 7.05212 14.4336 6.89925 14.5325 6.74639C14.6955 6.5036 14.8686 6.2136 15.0271 5.91461L15.054 5.85953C15.1414 5.67756 15.1723 5.47361 15.1428 5.27392L15.144 5.27954L15.1372 1.77258C15.208 1.26228 15.4958 0.830653 15.9016 0.567632L15.9083 0.563136C16.2701 0.237308 16.7291 0.0397824 17.2144 0.00112402H17.2223L17.2931 0C17.6764 0 18.0383 0.0910459 18.3598 0.251781L18.3463 0.245037C18.561 0.348447 18.7442 0.458602 18.9162 0.582244L18.9049 0.574376L19.0241 0.653058C19.295 0.795809 19.4973 1.03635 19.5872 1.32747L19.5895 1.33534C19.7997 2.11766 19.9919 2.82917 20.1706 3.54292L20.2448 3.83404C20.3583 4.21621 20.4561 4.67819 20.519 5.1514L20.5247 5.19861C20.3325 6.96782 19.9627 8.58192 19.4276 10.1196L19.4748 9.96447L28.1219 9.9521H28.1534C28.4154 9.95213 28.6743 10.0079 28.9131 10.1157C29.1518 10.2235 29.3649 10.3808 29.5382 10.5773C29.7115 10.7737 29.841 11.0048 29.9181 11.2551C29.9953 11.5055 30.0183 11.7694 29.9856 12.0293L29.9867 12.0203C30.0111 12.413 29.931 12.8052 29.7545 13.1569C29.5779 13.5085 29.3113 13.8071 28.9818 14.0222L28.9728 14.0278C29.2883 14.489 29.4359 15.0445 29.391 15.6014V15.5936C29.43 16.0349 29.327 16.4771 29.0972 16.8558C28.8673 17.2345 28.5224 17.5299 28.1129 17.6989L28.0995 17.7034C28.3494 18.1522 28.466 18.663 28.4355 19.1758V19.1691C28.4606 19.5534 28.3813 19.9374 28.206 20.2803C28.0306 20.6232 27.7659 20.9123 27.4397 21.117L27.4307 21.1226C27.6598 21.6369 27.7467 22.2033 27.6824 22.7626L27.6836 22.748V22.9593C27.6675 23.2361 27.5957 23.5069 27.4725 23.7553C27.3493 24.0038 27.1772 24.2248 26.9666 24.4052C26.756 24.5856 26.5111 24.7217 26.2467 24.8052C25.9823 24.8888 25.7037 24.9181 25.4277 24.8915L25.4355 24.8926H20.4572L20.4404 24.8937L20.4224 24.8926H20.4235H13.7805C13.7232 24.8926 13.6636 24.8926 13.6007 24.9016C13.5242 24.9061 13.4433 24.9129 13.3601 24.9129H13.3433C13.2297 24.9134 13.1166 24.8982 13.0072 24.8679L13.0162 24.8701L13.0139 24.8656ZM6.25294 23.3066C6.25301 23.2121 6.27171 23.1185 6.30796 23.0312C6.34421 22.9438 6.3973 22.8645 6.4642 22.7977C6.53111 22.7309 6.61051 22.6779 6.69789 22.6418C6.78526 22.6057 6.8789 22.5872 6.97344 22.5872C7.06798 22.5873 7.16159 22.606 7.2489 22.6423C7.33622 22.6785 7.41555 22.7316 7.48235 22.7985C7.54915 22.8654 7.60212 22.9448 7.63823 23.0322C7.67434 23.1196 7.69289 23.2132 7.69281 23.3077C7.69267 23.4987 7.61667 23.6817 7.48155 23.8167C7.34643 23.9516 7.16326 24.0273 6.97232 24.0271C6.78138 24.027 6.59832 23.951 6.46341 23.8159C6.3285 23.6807 6.25279 23.4976 6.25294 23.3066Z" stroke="white" stroke-width="2" mask="url(#path-1-inside-1_362_2955)"/>
</svg>
