<svg width="30" height="30" viewBox="0 0 30 30" fill="none" xmlns="http://www.w3.org/2000/svg">
<path d="M25.071 13.3555H21.086V10.965C21.086 10.331 21.1804 9.9369 21.3858 9.69297C21.5751 9.46827 21.9576 9.26 22.8315 9.26H25.2285H25.7285V8.76V4.71V4.26084L25.2819 4.21286C24.1031 4.0862 22.9181 4.02515 21.7325 4.03C19.9034 4.03021 18.3114 4.59054 17.1752 5.71403C16.0373 6.83923 15.412 8.47443 15.412 10.515V13.3555H12H11.5V13.8555V18.3825V18.8825H12H15.4105V29.5H1.656C1.01714 29.5 0.5 28.9829 0.5 28.344V1.656C0.5 1.01714 1.01714 0.5 1.656 0.5H28.344C28.9829 0.5 29.5 1.01714 29.5 1.656V28.344C29.5 28.9829 28.9829 29.5 28.344 29.5H21.0875V18.8825H24.4875H24.9272L24.9834 18.4464L25.5669 13.9194L25.6396 13.3555H25.071Z" stroke="white"/>
</svg>
