<svg width="30" height="30" viewBox="0 0 30 30" fill="none" xmlns="http://www.w3.org/2000/svg">
<path d="M11.5195 9.79109C12.5496 9.10283 13.7605 8.73542 14.9993 8.73529C16.6604 8.73746 18.2527 9.39825 19.4272 10.5728C20.6018 11.7473 21.2625 13.3396 21.2647 15.0007C21.2646 16.2395 20.8972 17.4504 20.2089 18.4805C19.5205 19.5107 18.5421 20.3137 17.3974 20.7878C16.2527 21.262 14.9931 21.3861 13.7778 21.1443C12.5626 20.9026 11.4463 20.306 10.5702 19.4298C9.69405 18.5537 9.09739 17.4374 8.85567 16.2222C8.61394 15.0069 8.73801 13.7473 9.21217 12.6026C9.68633 11.4579 10.4893 10.4795 11.5195 9.79109ZM11.9444 19.5731C12.8488 20.1774 13.9122 20.5 15 20.5C16.4587 20.5 17.8576 19.9205 18.8891 18.8891C19.9205 17.8576 20.5 16.4587 20.5 15C20.5 13.9122 20.1774 12.8488 19.5731 11.9444C18.9687 11.0399 18.1098 10.3349 17.1048 9.91866C16.0998 9.50238 14.9939 9.39346 13.927 9.60568C12.8601 9.8179 11.8801 10.3417 11.1109 11.1109C10.3417 11.8801 9.8179 12.8601 9.60568 13.927C9.39346 14.9939 9.50238 16.0998 9.91866 17.1048C10.3349 18.1098 11.0399 18.9687 11.9444 19.5731ZM7.94147 0.5H22.0585C24.0314 0.502258 25.9229 1.28699 27.318 2.68205C28.7131 4.07717 29.4978 5.96873 29.5 7.94173V22.0583C29.4978 24.0313 28.7131 25.9228 27.318 27.318C25.9228 28.7131 24.0313 29.4978 22.0583 29.5H7.94173C5.96873 29.4978 4.07717 28.7131 2.68205 27.318C1.28699 25.9229 0.502258 24.0314 0.5 22.0585V7.94147C0.502258 5.96856 1.28699 4.07711 2.68205 2.68205C4.07711 1.28699 5.96856 0.502258 7.94147 0.5ZM26.7798 26.7798C28.0319 25.5277 28.7353 23.8295 28.7353 22.0588V7.94118C28.7353 6.17047 28.0319 4.47228 26.7798 3.2202C25.5277 1.96812 23.8295 1.26471 22.0588 1.26471H7.94118C6.17047 1.26471 4.47228 1.96812 3.2202 3.2202C1.96812 4.47228 1.26471 6.17047 1.26471 7.94118V22.0588C1.26471 23.8295 1.96812 25.5277 3.2202 26.7798C4.47228 28.0319 6.17047 28.7353 7.94118 28.7353H22.0588C23.8295 28.7353 25.5277 28.0319 26.7798 26.7798ZM23.6176 7.35294C23.6176 7.54491 23.5607 7.73256 23.4541 7.89217C23.3474 8.05178 23.1958 8.17619 23.0185 8.24965C22.8411 8.32311 22.646 8.34233 22.4577 8.30488C22.2694 8.26743 22.0965 8.17499 21.9607 8.03925C21.825 7.90351 21.7326 7.73057 21.6951 7.54229C21.6577 7.35402 21.6769 7.15886 21.7504 6.98151C21.8238 6.80416 21.9482 6.65258 22.1078 6.54593C22.2674 6.43928 22.4551 6.38235 22.6471 6.38235C22.9045 6.38235 23.1514 6.48461 23.3334 6.66663C23.5154 6.84865 23.6176 7.09552 23.6176 7.35294Z" stroke="white"/>
</svg>
