<svg width="30" height="30" viewBox="0 0 30 30" fill="none" xmlns="http://www.w3.org/2000/svg">
<path d="M28.9749 24.0165L23.9072 18.9415L20.0092 17.3288C21.3072 15.4805 22.0025 13.2754 22 11.0157C22 4.94162 17.0654 0 11 0C4.93455 0 0 4.94162 0 11.0157C0 17.0898 4.93455 22.0315 11 22.0315C13.276 22.0341 15.4961 21.3257 17.3511 20.005L18.9574 23.8981L24.0249 28.9733C24.3499 29.2988 24.7358 29.557 25.1604 29.7332C25.5851 29.9093 26.0402 30 26.4998 30C26.9595 30 27.4146 29.9094 27.8393 29.7332C28.2639 29.5571 28.6498 29.2989 28.9748 28.9735C29.2998 28.648 29.5576 28.2616 29.7335 27.8364C29.9094 27.4111 30 26.9553 30 26.495C30 26.0347 29.9095 25.579 29.7336 25.1537C29.5577 24.7284 29.2999 24.342 28.9749 24.0165ZM2 11.0157C2 6.04613 6.03749 2.00286 11 2.00286C15.9625 2.00286 20 6.04613 20 11.0157C20 15.9853 15.9625 20.0286 11 20.0286C6.03749 20.0286 2 15.9853 2 11.0157ZM27.5606 27.5571C27.2791 27.8384 26.8976 27.9963 26.4999 27.9963C26.1023 27.9963 25.7208 27.8384 25.4393 27.5571L20.6535 22.7645L19.1601 19.1447L22.7749 20.6402L27.5607 25.4328C27.8416 25.7147 27.9993 26.0967 27.9992 26.495C27.9992 26.8932 27.8415 27.2752 27.5606 27.5571Z" fill="white"/>
</svg>
