<svg width="30" height="20" viewBox="0 0 30 20" fill="none" xmlns="http://www.w3.org/2000/svg">
<path d="M28.3333 19.5H1.66667C1.02614 19.5 0.5 18.9739 0.5 18.3333C0.5 17.6928 1.02614 17.1667 1.66667 17.1667H28.3333C28.9739 17.1667 29.5 17.6928 29.5 18.3333C29.5 18.9739 28.9739 19.5 28.3333 19.5ZM28.3333 11.1667H1.66667C1.02614 11.1667 0.5 10.6405 0.5 10C0.5 9.35948 1.02614 8.83333 1.66667 8.83333H28.3333C28.9739 8.83333 29.5 9.35948 29.5 10C29.5 10.6405 28.9739 11.1667 28.3333 11.1667ZM1.66667 2.83333C1.02614 2.83333 0.5 2.30719 0.5 1.66667C0.5 1.02614 1.02614 0.5 1.66667 0.5H28.3333C28.9739 0.5 29.5 1.02614 29.5 1.66667C29.5 2.30719 28.9739 2.83333 28.3333 2.83333H1.66667Z" fill="black" stroke="white"/>
</svg>
