<svg width="32" height="32" viewBox="0 0 32 32" fill="none" xmlns="http://www.w3.org/2000/svg">
<path d="M16 1C7.7155 1 1 7.7391 1 16.0527C1 24.3663 7.7155 31.1054 16 31.1054C24.2845 31.1054 31 24.3663 31 16.0527C31 7.7391 24.2845 1 16 1Z" stroke="white" stroke-width="1.5" stroke-linecap="round" stroke-linejoin="round"/>
<path d="M4.40649 25.6052C4.40649 25.6052 7.74999 21.3212 16 21.3212C24.25 21.3212 27.595 25.6052 27.595 25.6052M16 16.0527C17.1935 16.0527 18.3381 15.5769 19.182 14.7301C20.0259 13.8832 20.5 12.7346 20.5 11.5369C20.5 10.3392 20.0259 9.19062 19.182 8.34374C18.3381 7.49686 17.1935 7.02109 16 7.02109C14.8065 7.02109 13.6619 7.49686 12.818 8.34374C11.9741 9.19062 11.5 10.3392 11.5 11.5369C11.5 12.7346 11.9741 13.8832 12.818 14.7301C13.6619 15.5769 14.8065 16.0527 16 16.0527Z" stroke="white" stroke-width="1.5" stroke-linecap="round" stroke-linejoin="round"/>
</svg>
