<svg width="30" height="22" viewBox="0 0 30 22" fill="none" xmlns="http://www.w3.org/2000/svg">
<path d="M29.4934 7.41137L29.4931 7.42V7.42863C29.4931 8.26356 29.4927 12.8402 29.4399 13.5798L29.4384 13.6004L29.4386 13.6211C29.4556 15.1393 29.2245 16.6502 28.7545 18.094L28.754 18.0956C28.6133 18.5328 28.3711 18.9303 28.0473 19.2558C27.5537 19.7354 26.9282 20.0563 26.2511 20.1778C21.3341 20.5562 17.1722 20.6239 12.4209 20.556L12.412 20.5559L12.403 20.5561C9.47276 20.6196 6.54179 20.4711 3.63298 20.112C2.97411 19.9865 2.36711 19.6689 1.88848 19.199C1.47817 18.7348 1.18825 18.1767 1.04434 17.5739L1.04444 17.5739L1.04191 17.5642C0.818919 16.7067 0.687122 15.8281 0.648715 14.9429L0.648861 14.9429L0.648045 14.9308C0.450739 12.0144 0.450652 9.08805 0.647782 6.17166C0.650173 6.14297 0.652561 6.11424 0.65495 6.0855C0.721438 5.28555 0.789321 4.46882 0.975348 3.71386C1.16739 2.93448 1.47389 2.27351 1.98716 1.80015L1.98719 1.80019L1.99203 1.7956C2.46747 1.34527 3.06238 1.04142 3.70559 0.920116C7.45884 0.586783 11.2271 0.451649 14.9946 0.51528L15.003 0.515422L15.0113 0.515282C18.7927 0.452141 22.5747 0.591808 26.3411 0.933679C27.1159 1.07878 27.8182 1.48266 28.3332 2.07861C29.1582 3.73142 29.5572 5.56456 29.4934 7.41137ZM11.4232 14.4331V15.2721L12.1612 14.8729C13.5256 14.1346 14.9293 13.4215 16.2768 12.737L16.3929 12.6781C17.7726 11.9772 19.0926 11.3052 20.233 10.6732L21.0433 10.2241L20.2231 9.79323L12.1558 5.55512L11.4232 5.17029V5.99776V14.4331Z" stroke="white"/>
</svg>
